The story of Japanese-American soldiers who fought in Europe during World War II.



General

Movie name                       : Go for Broke! (1951)
Format                           : AVI
Format/Info                      : Audio Video Interleave
File size                        : 693 MiB
Duration                         : 1h 30mn
Overall bit rate                 : 1 067 Kbps


Video

ID                               : 0
Format                           : MPEG-4 Visual
Format profile                   : Simple@L1
Format settings, BVOP            : No
Format settings, QPel            : No
Format settings, GMC             : No warppoints
Format settings, Matrix          : Default (H.263)
Codec ID                         : DX50
Codec ID/Hint                    : DivX 5
Duration                         : 1h 30mn
Bit rate                         : 1 021 Kbps
Width                            : 640 pixels
Height                           : 480 pixels
Display aspect ratio             : 4:3
Frame rate                       : 29.970 fps
Color space                      : YUV
Chroma subsampling               : 4:2:0
Bit depth                        : 8 bits
Scan type                        : Progressive
Compression mode                 : Lossy
Bits/(Pixel*Frame)               : 0.111
Stream size                      : 663 MiB (96%)
Writing library                  : Lavc51.40.4


Audio

ID                               : 1
Format                           : MPEG Audio
Format version                   : Version 1
Format profile                   : Layer 3
Mode                             : Joint stereo
Mode extension                   : MS Stereo
Codec ID                         : 55
Codec ID/Hint                    : MP3
Duration                         : 1h 30mn
Bit rate mode                    : Constant
Bit rate                         : 32.0 Kbps
Channel(s)                       : 2 channels
Sampling rate                    : 48.0 KHz
Compression mode                 : Lossy
Stream size                      : 20.8 MiB (3%)
Alignment                        : Aligned on interleaves
Interleave, duration             : 24 ms (0.72 video frame)